<?xml version="1.0" standalone="no"?>
<!DOCTYPE svg PUBLIC "-//W3C//DTD SVG 20010904//EN"
 "http://www.w3.org/TR/2001/REC-SVG-20010904/DTD/svg10.dtd">
<svg version="1.0" xmlns="http://www.w3.org/2000/svg"
 width="420.000000pt" height="420.000000pt" viewBox="0 0 420.000000 420.000000"
 preserveAspectRatio="xMidYMid meet">
<metadata>
Created by potrace 1.14, written by Peter Selinger 2001-2017
</metadata>
<g transform="translate(0.000000,420.000000) scale(0.100000,-0.100000)"
fill="#000000" stroke="none">
<path d="M0 2103 l0 -2098 2098 0 2097 0 -3 645 c-2 481 -6 648 -15 659 -9 12
-9 13 1 7 8 -5 12 1 12 18 0 14 -5 26 -11 26 -5 0 -8 4 -4 9 3 5 0 13 -6 17
-8 4 -9 3 -5 -4 4 -7 2 -13 -3 -13 -26 -3 -30 -4 -37 -11 -4 -5 -2 -8 5 -8 8
0 9 -3 1 -12 -6 -7 -17 -22 -24 -32 -13 -19 -13 -18 -13 7 0 16 4 24 10 20 6
-4 7 -1 3 6 -5 7 -14 10 -22 7 -7 -3 -16 -1 -19 4 -4 6 -11 10 -17 10 -5 0 0
-8 12 -18 18 -15 20 -21 11 -45 -6 -15 -13 -27 -16 -27 -2 0 0 12 5 26 13 33
13 35 -2 32 -7 -1 -23 3 -35 10 -15 8 -23 9 -23 2 0 -5 6 -10 13 -10 8 0 7 -3
-3 -10 -18 -11 -35 13 -25 38 4 11 3 14 -4 7 -5 -5 -12 -23 -15 -40 -4 -20 -3
-24 2 -12 7 17 9 17 20 -7 11 -24 10 -25 -23 -22 -21 1 -36 -3 -39 -11 -6 -16
25 -18 41 -2 7 7 13 7 17 0 4 -6 -9 -13 -31 -17 -21 -4 -43 -14 -49 -23 -7 -8
-5 8 5 36 9 29 19 46 23 39 6 -8 8 -8 8 1 0 6 -5 15 -10 18 -6 4 -8 16 -4 27
5 18 4 19 -9 7 -8 -8 -14 -21 -12 -29 1 -8 -5 -20 -13 -26 -8 -6 -15 -21 -16
-35 -1 -29 -46 -42 -46 -13 0 13 -3 14 -14 5 -10 -8 -16 -8 -25 2 -6 8 -8 17
-4 20 3 4 -1 7 -10 7 -22 0 -31 -18 -17 -35 8 -10 8 -15 -2 -21 -7 -4 -10 -3
-5 1 4 5 0 16 -9 26 -12 14 -13 22 -4 38 7 14 7 21 0 21 -5 0 -10 5 -10 11 0
5 5 7 10 4 5 -3 10 -2 10 4 0 5 16 9 35 8 29 -2 34 -5 32 -24 -1 -25 -17 -32
-17 -9 0 8 -7 17 -16 20 -23 9 -24 8 -24 -13 0 -12 10 -21 27 -25 21 -6 31 -1
52 22 27 30 39 58 21 47 -5 -3 -10 -2 -10 4 0 5 5 11 12 13 9 3 9 6 0 12 -7 4
-12 3 -12 -3 0 -6 -7 -8 -15 -5 -8 4 -15 1 -15 -6 0 -6 4 -9 9 -6 5 3 11 -1
15 -9 3 -8 2 -16 -2 -18 -11 -6 -41 30 -34 40 4 4 -3 -1 -16 -11 -12 -11 -25
-16 -29 -12 -4 4 -1 12 7 17 13 9 13 10 0 8 -32 -3 -42 1 -36 16 4 12 -3 15
-32 14 -29 0 -33 -2 -17 -8 11 -5 23 -7 28 -4 4 2 7 -3 7 -11 0 -9 7 -16 15
-16 8 0 15 -5 15 -11 0 -5 -3 -8 -8 -5 -4 2 -16 -2 -27 -10 -10 -8 -14 -14 -7
-14 6 0 9 -7 6 -15 -4 -8 -10 -15 -16 -15 -5 0 -6 5 -3 10 3 5 3 15 -1 22 -5
8 -11 6 -20 -6 -8 -11 -14 -13 -19 -7 -3 6 -2 11 4 11 6 0 8 6 5 14 -3 8 0 17
7 22 8 5 10 3 4 -7 -7 -11 -6 -12 7 -2 8 7 18 10 21 6 4 -3 7 -1 7 5 0 12 -20
16 -49 13 -7 -2 -11 2 -8 6 7 11 -1 23 -27 43 -18 14 -19 14 -5 -8 8 -12 16
-22 19 -22 3 0 6 -11 6 -24 0 -14 -3 -23 -7 -20 -10 6 -41 -26 -37 -38 2 -5 6
-8 9 -6 7 4 39 -22 39 -32 0 -3 -7 -7 -15 -7 -8 0 -12 4 -9 9 5 7 -3 10 -22 7
-14 -2 -22 26 -12 38 8 11 7 12 -7 7 -12 -5 -16 -4 -12 3 4 6 0 16 -8 23 -8 7
-15 9 -15 4 0 -5 -4 -3 -9 5 -7 11 -11 9 -21 -9 -11 -21 -10 -22 7 -18 15 4
19 0 19 -17 0 -19 -4 -22 -25 -18 -22 4 -23 2 -10 -14 13 -16 12 -17 -3 -4
-16 12 -18 11 -18 -3 0 -9 -5 -16 -10 -16 -7 0 -7 6 -1 17 5 10 10 23 10 28 1
6 12 8 24 7 12 -2 19 -1 16 2 -3 3 -15 7 -28 9 -12 2 -27 10 -32 18 -7 10 -9
3 -6 -23 3 -22 0 -38 -5 -38 -6 0 -8 7 -4 15 5 15 1 18 -29 18 -28 0 -33 -3
-31 -16 3 -21 32 -57 41 -49 5 4 5 1 1 -5 -11 -20 -24 -15 -40 15 -8 15 -15
23 -16 18 0 -5 -7 -3 -16 4 -12 11 -15 11 -12 -1 2 -8 -3 -13 -10 -11 -8 1
-11 -1 -8 -6 2 -4 1 -14 -4 -22 -7 -12 -12 -12 -22 -2 -9 9 -9 12 2 12 13 0
13 2 0 11 -11 8 -12 12 -2 16 23 9 12 20 -14 15 -20 -4 -25 -2 -19 8 5 9 4 11
-3 6 -7 -4 -12 -3 -12 1 0 5 -12 10 -27 11 -21 2 -24 -1 -15 -10 7 -7 12 -20
12 -30 0 -9 8 -22 18 -27 9 -6 11 -11 5 -11 -7 0 -13 -6 -13 -14 0 -8 -5 -18
-10 -21 -7 -4 -9 3 -6 18 5 26 -2 41 -21 44 -7 2 -14 -7 -14 -20 -1 -14 -4
-10 -9 13 l-7 35 -2 -45 c-1 -32 -4 -41 -10 -30 -6 8 -7 18 -4 24 4 5 -1 7
-10 3 -10 -3 -17 -2 -17 3 0 6 7 10 15 10 8 0 15 7 15 15 0 20 -25 8 -38 -18
-9 -19 -11 -19 -11 -4 -1 10 -5 15 -11 12 -6 -3 -10 1 -10 9 0 16 -31 22 -44
9 -3 -4 -14 -8 -24 -9 -9 -2 -29 -6 -45 -10 -26 -6 -27 -5 -18 19 7 18 7 27
-2 31 -7 3 -2 3 11 0 12 -3 22 -1 22 5 0 6 -4 11 -9 11 -5 0 -12 7 -15 16 -4
12 1 10 23 -6 18 -12 32 -16 36 -10 3 5 -1 10 -10 10 -9 0 -13 5 -10 10 4 7
13 7 26 0 15 -9 17 -15 9 -30 -6 -11 -16 -17 -25 -14 -8 4 -15 1 -15 -5 0 -6
-7 -8 -15 -5 -9 4 -15 0 -15 -10 0 -19 4 -20 32 -5 31 17 78 22 91 10 16 -12
31 -2 35 24 3 19 3 19 -10 3 -10 -14 -19 -16 -43 -9 -21 7 -24 10 -10 10 18 2
19 2 3 12 -10 5 -18 20 -18 32 0 38 -3 57 -9 51 -3 -3 -6 -9 -6 -12 0 -13 -39
-51 -47 -46 -13 8 -9 26 5 18 6 -4 -1 7 -17 25 -22 23 -35 29 -50 25 -20 -6
-20 -6 -3 13 17 20 17 21 -3 26 -11 3 -23 1 -26 -4 -3 -5 0 -9 6 -9 6 0 8 -5
5 -10 -4 -6 -12 -7 -18 -3 -8 5 -8 2 0 -9 7 -8 9 -18 5 -22 -4 -4 -8 -49 -8
-99 -1 -51 -2 -109 -3 -129 l-1 -38 -785 0 -785 0 0 940 0 940 305 0 305 0 0
-695 0 -695 404 0 c259 0 407 4 411 10 3 6 12 10 18 10 7 0 6 -4 -3 -10 -12
-7 -8 -10 15 -10 23 0 27 3 15 10 -8 5 -10 10 -4 10 6 0 14 -3 18 -7 13 -13
44 -12 56 2 9 11 9 15 1 15 -6 0 -11 -4 -11 -10 0 -5 -5 -10 -11 -10 -5 0 -7
5 -4 10 3 6 2 10 -3 10 -5 0 -9 11 -9 25 0 14 -8 32 -18 39 -13 9 -15 15 -6
20 6 4 9 16 6 26 -3 10 1 25 10 33 20 21 19 30 -4 24 -10 -2 -25 -1 -32 4 -11
7 -10 9 4 9 13 0 16 6 13 25 -3 15 0 25 7 25 7 0 6 4 -2 9 -15 10 -44 -16 -35
-31 3 -4 -3 -5 -12 -1 -10 4 -13 8 -7 10 6 2 9 14 7 26 -4 20 -3 20 4 3 7 -16
10 -17 14 -5 6 17 -15 52 -25 42 -4 -3 -7 -1 -7 6 0 9 9 12 25 9 29 -6 42 7
26 26 -8 9 -7 13 4 13 8 0 12 -4 9 -9 -3 -4 3 -8 13 -8 16 1 15 3 -5 20 -23
19 -58 17 -45 -3 4 -6 1 -7 -7 -2 -10 6 -7 12 11 26 15 11 28 14 34 8 13 -13
22 -11 22 6 0 8 -4 12 -8 10 -4 -3 -10 2 -13 11 -8 21 -8 20 10 38 12 13 12
16 2 16 -8 0 -20 -6 -27 -12 -11 -11 -13 -10 -7 0 4 6 21 19 38 28 28 15 30
15 25 0 -5 -13 -3 -14 13 -4 22 14 22 15 -5 20 -11 1 -23 7 -26 11 -3 4 -15 9
-26 10 -13 0 -19 6 -16 14 4 10 9 11 19 2 13 -10 18 -6 15 13 0 4 5 5 13 2 18
-7 32 14 18 28 -6 6 -12 6 -16 -1 -12 -19 -24 -12 -22 14 1 26 26 45 26 20 0
-18 9 -19 30 -4 12 9 12 10 -4 5 -14 -5 -17 -2 -12 10 3 8 6 18 6 20 0 3 3 3
8 1 4 -3 8 6 8 19 1 15 -4 24 -12 24 -15 0 -19 12 -7 23 3 4 17 -3 30 -15 l23
-22 -16 32 c-18 36 -17 36 -47 21 -21 -11 -21 -10 -6 6 17 17 59 13 59 -6 0
-5 8 -9 17 -9 14 0 13 3 -5 16 -12 8 -22 22 -22 30 0 8 -5 14 -11 14 -5 0 -7
-4 -4 -10 3 -5 0 -7 -9 -4 -12 5 -12 8 2 25 18 20 48 27 36 7 -4 -7 -3 -8 5
-4 7 4 15 -2 20 -16 10 -22 10 -22 8 4 -1 15 -5 24 -9 22 -4 -3 -8 0 -8 5 0
15 23 14 40 -1 8 -7 7 -4 -3 8 -19 22 -48 27 -59 10 -5 -8 -8 -7 -8 1 0 11 35
37 52 38 3 0 10 3 14 8 13 12 -16 8 -46 -8 -38 -19 -38 -8 -2 27 21 20 32 24
45 16 13 -7 19 -5 23 7 4 9 4 19 0 22 -3 4 -6 -2 -6 -13 0 -15 -2 -16 -9 -5
-6 9 -6 22 0 34 7 13 7 23 -2 33 -7 8 -8 14 -3 13 20 -3 32 2 38 16 3 9 0 15
-10 15 -8 0 -12 -4 -9 -10 4 -6 -1 -7 -11 -3 -15 5 -14 7 2 17 11 6 23 11 28
11 5 0 11 6 14 14 3 8 0 11 -6 7 -6 -3 -13 -2 -17 4 -5 9 7 14 27 12 3 -1 9 6
12 14 4 11 2 15 -8 11 -11 -4 -11 -1 -2 19 12 26 32 34 22 8 -3 -9 -2 -12 5
-9 5 4 7 16 3 27 -4 14 -2 18 5 14 6 -4 15 3 20 16 8 18 10 19 10 5 1 -10 -4
-28 -11 -40 -10 -20 -10 -21 6 -7 14 11 17 23 12 52 -5 28 -2 39 10 46 9 5 14
15 10 21 -4 6 -12 8 -18 5 -7 -4 -8 -2 -4 4 8 13 36 5 36 -11 0 -6 2 -8 5 -5
3 3 -1 20 -9 38 -9 22 -15 28 -20 19 -3 -8 -3 -3 0 10 5 17 3 21 -6 16 -9 -6
-11 -4 -5 5 6 10 12 7 26 -11 9 -13 16 -26 13 -30 -2 -4 3 -10 12 -13 11 -4
14 -1 9 13 -6 19 18 37 35 26 10 -6 8 15 -3 33 -10 14 -11 14 35 16 21 1 41 6
45 11 5 4 -1 5 -12 1 -16 -5 -15 -3 5 13 13 11 29 17 35 14 5 -3 5 0 -2 7 -6
7 -9 19 -6 27 3 8 0 19 -8 24 -11 7 -11 9 -1 9 7 0 11 3 9 8 -2 4 8 18 21 32
l25 25 -16 -31 c-14 -27 -14 -34 -2 -50 8 -11 15 -25 15 -33 0 -11 -3 -11 -17
0 -16 12 -17 12 -6 -2 7 -9 9 -20 5 -25 -4 -4 0 -3 10 4 17 14 24 87 6 76 -5
-3 -4 3 3 14 17 27 72 26 65 -1 -2 -10 0 -14 6 -11 5 4 8 17 5 30 -2 13 0 21
4 18 14 -8 11 30 -3 44 -9 9 -9 12 2 12 20 0 50 -20 32 -20 -7 0 -10 -5 -7
-10 4 -6 2 -17 -4 -24 -9 -10 -7 -15 5 -20 22 -9 44 11 26 23 -11 7 -10 10 3
14 9 4 14 3 12 -1 -2 -4 7 -18 20 -31 14 -15 23 -19 23 -11 0 11 3 11 12 2 17
-17 47 -15 54 3 7 17 25 10 20 -8 -1 -7 -1 -9 1 -4 3 4 9 5 14 1 5 -3 9 -1 9
4 0 6 -7 13 -16 16 -15 6 -15 8 0 31 10 15 12 25 6 25 -6 0 -8 5 -5 10 10 16
34 -7 30 -28 -1 -9 0 -11 2 -4 3 6 10 12 16 12 8 0 7 4 -1 12 -7 7 -12 17 -12
22 0 6 7 0 16 -13 14 -19 14 -25 3 -32 -8 -5 -10 -9 -5 -9 5 0 2 -8 -5 -17 -8
-10 -9 -14 -2 -10 7 4 16 0 22 -10 5 -10 13 -17 18 -16 4 0 7 -4 5 -10 -2 -7
0 -8 5 -4 4 5 9 13 9 18 1 5 2 15 3 22 1 7 6 5 12 -5 5 -10 15 -18 22 -18 6 0
1 10 -11 22 -17 17 -24 20 -34 10 -17 -17 -28 -15 -28 6 0 19 44 24 69 8 9 -6
12 -5 7 2 -3 6 -2 13 3 17 6 3 15 -4 22 -16 8 -15 8 -24 0 -28 -6 -4 -3 -11 8
-18 16 -10 18 -8 15 13 -1 14 -8 31 -14 39 -10 12 -9 15 2 15 8 0 15 -6 16
-12 4 -49 18 -73 43 -76 17 -1 26 3 26 13 0 11 -4 12 -14 4 -9 -9 -13 -8 -13
0 0 7 -5 9 -10 6 -5 -3 -10 -1 -10 5 0 6 8 10 17 8 10 -2 18 3 18 10 0 6 4 11
10 10 5 -2 8 -10 7 -17 -3 -13 -2 -13 14 0 10 7 15 9 11 2 -4 -6 -3 -14 3 -18
5 -3 10 -1 10 4 0 6 7 11 16 11 9 0 12 5 8 12 -5 7 -3 8 6 3 11 -7 9 -12 -8
-23 -20 -13 -33 -40 -13 -28 14 9 34 -21 36 -54 2 -20 -1 -27 -9 -23 -6 4 -5
-1 3 -10 16 -20 22 -22 18 -5 -1 8 11 13 32 15 22 1 30 -2 21 -7 -7 -5 -15
-16 -16 -24 -1 -9 2 -14 7 -10 5 3 7 11 3 17 -3 7 5 -1 19 -18 14 -16 23 -34
19 -39 -3 -5 -9 0 -13 12 -6 15 -13 20 -25 15 -16 -6 -16 -7 0 -13 21 -7 23
-19 4 -32 -10 -7 -10 -9 2 -7 42 4 59 -2 62 -23 2 -18 9 -22 28 -20 19 2 21 1
11 -7 -12 -8 -12 -12 -2 -25 7 -9 17 -13 22 -10 5 3 9 1 9 -5 0 -6 7 -8 16 -4
9 3 20 0 25 -8 7 -12 9 -11 9 2 0 8 -6 21 -12 28 -10 11 -10 13 0 7 9 -5 12 9
12 61 0 37 3 332 7 656 l6 587 -2101 0 -2102 0 0 -2097z m3566 1167 c13 5 24
6 24 1 0 -5 -7 -12 -16 -15 -8 -3 -12 -11 -8 -17 4 -7 3 -9 -3 -6 -6 4 -16 0
-23 -8 -7 -8 -9 -15 -5 -15 4 0 2 -6 -4 -14 -19 -23 -65 -7 -55 19 4 11 14 13
33 8 23 -6 24 -4 13 10 -11 13 -10 15 6 10 11 -2 23 0 27 6 3 6 1 10 -6 9 -6
-2 -13 3 -14 10 -2 7 -1 8 1 3 4 -6 14 -7 30 -1z m-46 -4 c0 -2 -7 -6 -15 -10
-8 -3 -15 -1 -15 4 0 6 7 10 15 10 8 0 15 -2 15 -4z m155 -7 c4 -6 13 -8 21
-5 8 3 11 0 7 -10 -3 -7 -12 -14 -21 -14 -8 0 -12 3 -9 7 4 3 -1 12 -11 19 -9
8 -12 14 -5 14 6 0 15 -5 18 -11z m94 -20 c-19 -12 -24 -2 -8 17 9 11 14 13
17 4 3 -7 -2 -16 -9 -21z m-397 -34 c-4 -25 -13 -31 -25 -18 -6 5 19 43 28 43
1 0 0 -11 -3 -25z m197 -8 c-6 -13 -17 -24 -25 -24 -18 0 -18 6 3 29 23 25 35
23 22 -5z m-279 9 c0 -2 -6 -9 -14 -15 -11 -9 -16 -9 -22 0 -4 7 -3 9 4 5 6
-3 13 -2 17 4 6 10 15 14 15 6z m540 -8 c0 -4 -4 -8 -9 -8 -6 0 -12 4 -15 8
-3 5 1 9 9 9 8 0 15 -4 15 -9z m-595 -7 c-3 -5 -1 -12 5 -16 13 -8 13 -25 -1
-25 -5 0 -8 4 -4 9 3 5 1 12 -5 16 -13 8 -13 25 1 25 5 0 8 -4 4 -9z m-30 -51
c-3 -5 -12 -10 -18 -10 -7 0 -6 4 3 10 19 12 23 12 15 0z m44 -19 c12 -8 10
-12 -12 -22 -14 -6 -24 -15 -22 -19 3 -4 -4 -15 -15 -25 -12 -11 -20 -13 -20
-6 0 6 7 14 15 17 12 5 13 10 4 20 -9 11 -7 14 9 14 24 0 38 16 20 23 -7 3 -8
6 -3 6 6 0 17 -3 24 -8z m724 -26 c-7 -21 -12 -19 -10 4 0 11 5 18 9 15 4 -3
5 -11 1 -19z m-718 -15 c-3 -5 -11 -10 -16 -10 -6 0 -7 5 -4 10 3 6 11 10 16
10 6 0 7 -4 4 -10z m-100 -37 c-1 -10 2 -23 7 -30 7 -9 2 -14 -17 -19 -18 -4
-30 -2 -36 7 -11 18 -3 24 14 10 12 -9 14 -7 13 11 -3 27 2 38 14 38 4 0 7 -8
5 -17z m930 -63 c-3 -5 -12 -10 -18 -10 -7 0 -6 4 3 10 19 12 23 12 15 0z m17
-40 c-20 -20 -25 -19 -17 2 3 8 12 15 20 15 12 0 11 -4 -3 -17z m34 -46 c-4
-9 -9 -15 -11 -12 -3 3 -3 13 1 22 4 9 9 15 11 12 3 -3 3 -13 -1 -22z m-1061
6 c-3 -5 -11 -10 -16 -10 -6 0 -7 5 -4 10 3 6 11 10 16 10 6 0 7 -4 4 -10z
m-35 -44 c0 -2 -7 -6 -15 -10 -8 -3 -15 -1 -15 4 0 6 7 10 15 10 8 0 15 -2 15
-4z m-114 -241 c1 -8 -1 -17 -5 -19 -4 -3 -7 6 -7 19 0 25 8 25 12 0z m-29 -7
c-3 -8 -6 -5 -6 6 -1 11 2 17 5 13 3 -3 4 -12 1 -19z m-53 -127 c3 -5 -2 -15
-12 -22 -15 -12 -16 -12 -5 2 7 9 10 19 6 22 -3 4 -4 7 0 7 3 0 8 -4 11 -9z
m-1 -147 c6 1 9 1 4 -1 -4 -3 -5 -8 -3 -12 3 -4 0 -13 -6 -21 -8 -12 -9 -12
-4 2 3 10 1 20 -4 23 -6 4 -10 -2 -10 -13 0 -10 -6 -19 -14 -19 -13 0 -13 3
-1 20 7 11 11 27 8 36 -4 14 -3 14 7 -1 6 -9 16 -16 23 -14z m-103 -284 c0 -5
-4 -10 -10 -10 -5 0 -10 5 -10 10 0 6 5 10 10 10 6 0 10 -4 10 -10z m0 -50 c0
-5 -5 -10 -11 -10 -5 0 -7 5 -4 10 3 6 8 10 11 10 2 0 4 -4 4 -10z m-30 -26
c0 -8 -19 -13 -24 -6 -3 5 1 9 9 9 8 0 15 -2 15 -3z m40 -118 c0 -3 -4 -8 -10
-11 -5 -3 -10 -1 -10 4 0 6 5 11 10 11 6 0 10 -2 10 -4z m15 -25 c-3 -5 -1
-13 5 -16 8 -5 8 -11 1 -19 -6 -7 -8 -16 -4 -19 3 -4 -2 -7 -12 -7 -17 0 -17
1 -1 19 13 14 14 20 5 23 -11 4 -5 28 7 28 3 0 3 -4 -1 -9z m15 -102 c0 -5 3
-8 8 -6 4 3 7 -6 7 -19 0 -13 -4 -23 -10 -21 -5 2 -10 10 -10 18 0 8 -4 14
-10 14 -5 0 -9 -7 -7 -15 2 -13 2 -13 -7 0 -7 9 -6 19 1 27 13 16 28 17 28 2z
m194 -318 c3 -4 -6 -13 -19 -19 -29 -13 -33 -32 -7 -32 13 0 14 -2 3 -9 -16
-10 -50 20 -56 49 -3 14 1 17 12 13 10 -4 14 -2 10 4 -4 6 -1 13 5 16 14 5 44
-8 52 -22z m76 -15 c0 -2 -7 -7 -16 -10 -8 -3 -12 -2 -9 4 6 10 25 14 25 6z
m-130 -60 c0 -3 -4 -8 -10 -11 -5 -3 -10 -1 -10 4 0 6 5 11 10 11 6 0 10 -2
10 -4z m1260 0 c0 -2 -7 -7 -16 -10 -8 -3 -12 -2 -9 4 6 10 25 14 25 6z
m-1230 -28 c0 -6 -3 -9 -6 -5 -3 3 -17 2 -31 -4 -16 -6 -22 -6 -18 1 3 6 13
10 21 10 8 0 14 5 14 11 0 5 5 7 10 4 6 -3 10 -11 10 -17z m1095 2 c3 -5 1
-10 -5 -10 -6 0 -8 -5 -4 -11 4 -8 0 -8 -15 0 -11 7 -21 14 -21 17 0 3 5 2 10
-1 6 -3 10 -1 10 4 0 14 17 14 25 1z m-771 -21 c-30 -12 -37 -10 -24 5 6 8 19
12 27 9 14 -6 14 -8 -3 -14z m636 2 c0 -6 -4 -12 -8 -15 -5 -3 -9 1 -9 9 0 8
4 15 9 15 4 0 8 -4 8 -9z m-993 -20 c0 -11 -5 -18 -9 -15 -4 3 -5 11 -1 19 7
21 12 19 10 -4z m166 5 c4 -10 1 -13 -7 -10 -8 3 -17 1 -21 -5 -5 -10 7 -15
27 -12 4 0 5 -6 1 -15 -5 -13 -7 -13 -14 -2 -7 10 -9 8 -9 -6 0 -11 -3 -16 -7
-12 -14 14 -9 61 7 68 8 4 16 7 16 7 1 1 4 -6 7 -13z m-90 -24 c-12 -2 -24
-11 -26 -20 -3 -9 -4 -5 -4 9 1 22 5 25 27 20 23 -5 23 -6 3 -9z m1051 2 c3
-8 2 -12 -4 -9 -6 3 -10 10 -10 16 0 14 7 11 14 -7z m-891 -25 c3 -12 0 -19
-10 -19 -9 0 -13 6 -9 15 3 9 0 15 -9 15 -9 0 -12 -6 -8 -17 4 -10 2 -14 -5
-9 -6 3 -15 -2 -21 -11 -15 -26 -13 -7 2 20 22 41 50 44 60 6z m217 21 c0 -5
-5 -10 -11 -10 -5 0 -7 5 -4 10 3 6 8 10 11 10 2 0 4 -4 4 -10z m270 6 c0 -3
-4 -8 -10 -11 -5 -3 -10 -1 -10 4 0 6 5 11 10 11 6 0 10 -2 10 -4z m87 -2 c-3
-3 -12 -4 -19 -1 -8 3 -5 6 6 6 11 1 17 -2 13 -5z m-513 -19 c-4 -8 -8 -15
-10 -15 -2 0 -4 7 -4 15 0 8 4 15 10 15 5 0 7 -7 4 -15z m316 5 c0 -5 -5 -10
-11 -10 -5 0 -7 5 -4 10 3 6 8 10 11 10 2 0 4 -4 4 -10z m-520 -4 c0 -2 -8
-10 -17 -17 -16 -13 -17 -12 -4 4 13 16 21 21 21 13z m317 -16 c-1 -11 -5 -20
-9 -20 -10 0 -10 4 -2 24 8 22 13 20 11 -4z m78 9 c11 -16 1 -19 -13 -3 -7 8
-8 14 -3 14 5 0 13 -5 16 -11z m-39 -14 c-1 -8 -6 -18 -12 -22 -5 -4 -6 -4 -2
1 4 5 3 15 -3 23 -9 10 -8 13 4 13 8 0 14 -7 13 -15z m414 -1 c0 -8 -19 -13
-24 -6 -3 5 1 9 9 9 8 0 15 -2 15 -3z m-564 -30 c1 -9 0 -13 -4 -10 -3 4 -7
14 -8 22 -1 9 0 13 4 10 3 -4 7 -14 8 -22z m524 20 c0 -8 -19 -13 -24 -6 -3 5
1 9 9 9 8 0 15 -2 15 -3z m65 -22 c-3 -3 -11 0 -18 7 -9 10 -8 11 6 5 10 -3
15 -9 12 -12z m139 0 c3 -5 -1 -9 -9 -9 -8 0 -12 4 -9 9 3 4 7 8 9 8 2 0 6 -4
9 -8z"/>
<path d="M3485 3210 c-3 -5 -1 -10 4 -10 6 0 11 5 11 10 0 6 -2 10 -4 10 -3 0
-8 -4 -11 -10z"/>
<path d="M2929 1423 c0 -5 -2 -16 -4 -26 -2 -11 -1 -16 3 -13 8 8 14 46 7 46
-3 0 -5 -3 -6 -7z"/>
<path d="M3596 3205 c-3 -8 -1 -15 4 -15 6 0 10 7 10 15 0 8 -2 15 -4 15 -2 0
-6 -7 -10 -15z"/>
<path d="M3326 3161 c-4 -5 -2 -12 4 -16 6 -4 7 -11 4 -17 -4 -6 -2 -8 4 -5
10 7 11 32 0 42 -3 4 -9 2 -12 -4z"/>
<path d="M3872 3141 c1 -23 4 -26 14 -17 6 6 8 13 3 14 -5 2 -7 8 -4 12 3 5 1
11 -4 14 -5 4 -9 -7 -9 -23z"/>
<path d="M3470 3141 c0 -6 4 -13 10 -16 6 -3 7 1 4 9 -7 18 -14 21 -14 7z"/>
<path d="M3906 3125 c-3 -9 -2 -13 4 -10 14 9 12 -9 -2 -23 -7 -7 -8 -12 -2
-12 5 0 15 9 21 19 10 15 9 22 -1 30 -10 9 -15 8 -20 -4z"/>
<path d="M3773 3117 c0 -7 14 -13 30 -14 27 -2 36 3 12 7 -5 1 -17 6 -26 10
-10 6 -16 5 -16 -3z"/>
<path d="M3330 3096 c0 -8 4 -17 9 -20 5 -4 7 3 4 14 -6 23 -13 26 -13 6z"/>
<path d="M3870 3089 c0 -5 5 -7 10 -4 6 3 10 8 10 11 0 2 -4 4 -10 4 -5 0 -10
-5 -10 -11z"/>
<path d="M3925 3030 c-3 -6 1 -13 10 -16 21 -9 26 -2 10 13 -9 8 -16 9 -20 3z"/>
<path d="M3215 3000 c3 -5 8 -10 11 -10 2 0 4 5 4 10 0 6 -5 10 -11 10 -5 0
-7 -4 -4 -10z"/>
<path d="M3946 2985 c4 -8 8 -15 10 -15 2 0 4 7 4 15 0 8 -4 15 -10 15 -5 0
-7 -7 -4 -15z"/>
<path d="M4000 2929 c0 -5 5 -7 10 -4 6 3 10 8 10 11 0 2 -4 4 -10 4 -5 0 -10
-5 -10 -11z"/>
<path d="M3100 2855 c-7 -8 -9 -15 -6 -15 4 0 14 7 22 15 9 8 11 15 6 15 -5 0
-15 -7 -22 -15z"/>
<path d="M4120 2851 c0 -5 7 -12 16 -15 14 -5 15 -4 4 9 -14 17 -20 19 -20 6z"/>
<path d="M4168 2803 c7 -3 16 -2 19 1 4 3 -2 6 -13 5 -11 0 -14 -3 -6 -6z"/>
<path d="M3036 2751 c-3 -5 0 -14 8 -20 10 -9 17 -7 27 6 13 16 12 17 -3 4
-16 -12 -22 -9 -19 12 1 10 -7 9 -13 -2z"/>
<path d="M3032 2701 c2 -7 7 -12 11 -12 12 1 9 15 -3 20 -7 2 -11 -2 -8 -8z"/>
<path d="M2980 2606 c0 -3 9 -10 20 -16 11 -6 20 -8 20 -6 0 3 -9 10 -20 16
-11 6 -20 8 -20 6z"/>
<path d="M2973 2557 c-9 -18 -8 -24 2 -24 8 0 11 7 7 15 -3 9 -1 13 5 9 5 -3
10 0 10 8 0 22 -12 18 -24 -8z"/>
<path d="M2880 2291 c0 -6 4 -12 8 -15 5 -3 9 1 9 9 0 8 -4 15 -9 15 -4 0 -8
-4 -8 -9z"/>
<path d="M2825 2190 c3 -5 8 -10 11 -10 2 0 4 5 4 10 0 6 -5 10 -11 10 -5 0
-7 -4 -4 -10z"/>
<path d="M2806 2103 c-11 -11 -7 -20 9 -20 8 0 15 4 15 8 0 11 -16 20 -24 12z"/>
<path d="M2875 2099 c-4 -6 -5 -12 -2 -15 2 -3 7 2 10 11 7 17 1 20 -8 4z"/>
<path d="M2835 2030 c-3 -5 -1 -10 4 -10 6 0 11 5 11 10 0 6 -2 10 -4 10 -3 0
-8 -4 -11 -10z"/>
<path d="M2760 1960 c0 -4 11 -12 25 -18 18 -8 26 -8 31 0 5 7 2 8 -6 3 -9 -6
-12 -4 -8 6 4 11 -1 15 -18 15 -13 0 -24 -3 -24 -6z"/>
<path d="M2830 1930 c-13 -11 -19 -20 -13 -20 5 0 20 9 33 20 13 11 19 20 13
20 -5 0 -20 -9 -33 -20z"/>
<path d="M2796 1877 c3 -10 9 -15 12 -12 3 3 0 11 -7 18 -10 9 -11 8 -5 -6z"/>
<path d="M2805 1796 c3 -10 0 -25 -6 -32 -9 -11 -8 -14 4 -14 8 0 17 -6 20
-14 6 -15 30 -17 35 -3 5 16 1 19 -13 7 -12 -10 -15 -10 -15 1 -1 8 -8 28 -16
44 -8 17 -12 22 -9 11z"/>
<path d="M2850 1700 c-9 -6 -10 -10 -3 -10 6 0 15 5 18 10 8 12 4 12 -15 0z"/>
<path d="M2883 1665 c0 -8 4 -12 9 -9 5 3 6 10 3 15 -9 13 -12 11 -12 -6z"/>
<path d="M2929 1623 c-13 -16 -12 -17 4 -4 16 13 21 21 13 21 -2 0 -10 -8 -17
-17z"/>
<path d="M2917 1588 c-7 -20 -7 -28 0 -30 3 -2 8 7 9 20 4 24 -1 30 -9 10z"/>
<path d="M2946 1526 c7 -18 34 -22 34 -4 0 6 -3 8 -7 5 -3 -4 -12 -2 -20 5
-11 8 -12 7 -7 -6z"/>
<path d="M3655 1530 c-3 -6 1 -7 9 -4 18 7 21 14 7 14 -6 0 -13 -4 -16 -10z"/>
<path d="M2898 1519 c-10 -5 -18 -15 -18 -21 0 -7 4 -7 13 1 8 6 16 9 19 6 2
-3 5 2 5 10 0 8 -1 15 -1 15 -1 0 -9 -5 -18 -11z"/>
<path d="M3676 1497 c3 -10 9 -15 12 -12 3 3 0 11 -7 18 -10 9 -11 8 -5 -6z"/>
<path d="M2950 1490 c0 -8 5 -22 10 -30 9 -13 10 -13 10 0 0 8 -5 22 -10 30
-9 13 -10 13 -10 0z"/>
<path d="M3613 1485 c0 -8 4 -12 9 -9 5 3 6 10 3 15 -9 13 -12 11 -12 -6z"/>
<path d="M2990 1480 c12 -7 13 -13 4 -28 -10 -16 -9 -18 10 -16 11 1 22 3 24
3 8 3 -32 51 -42 51 -6 0 -4 -5 4 -10z"/>
<path d="M3646 1482 c-3 -5 1 -9 9 -9 8 0 12 4 9 9 -3 4 -7 8 -9 8 -2 0 -6 -4
-9 -8z"/>
<path d="M3703 1483 c4 -3 1 -13 -6 -22 -11 -14 -10 -14 5 -2 16 12 16 31 1
31 -4 0 -3 -3 0 -7z"/>
<path d="M3580 1453 c0 -12 7 -23 15 -27 13 -5 14 -2 4 17 -17 32 -19 33 -19
10z"/>
<path d="M3787 1456 c-10 -8 -14 -16 -10 -19 5 -3 14 3 21 14 14 22 13 23 -11
5z"/>
<path d="M3880 1465 c0 -5 5 -17 10 -25 5 -8 10 -10 10 -5 0 6 -5 17 -10 25
-5 8 -10 11 -10 5z"/>
<path d="M4176 1451 c-5 -8 0 -50 7 -58 3 -2 4 12 3 32 -1 37 -2 40 -10 26z"/>
<path d="M3450 1439 c0 -5 5 -7 10 -4 6 3 10 2 10 -4 0 -6 7 -8 15 -4 19 7 12
16 -15 20 -11 2 -20 -2 -20 -8z"/>
<path d="M4096 1399 c0 -16 4 -32 9 -37 5 -4 5 -1 1 6 -4 7 -1 12 8 12 8 0 18
5 22 12 5 8 2 9 -9 5 -11 -4 -17 -1 -17 8 0 7 -3 16 -7 18 -5 3 -8 -8 -7 -24z"/>
<path d="M3450 1412 c0 -7 -6 -11 -12 -9 -7 1 -14 -9 -17 -23 -3 -21 -4 -22
-10 -7 -6 17 -8 16 -19 -7 -7 -16 -8 -26 -2 -26 6 0 10 4 10 9 0 10 19 9 38
-2 7 -5 12 -3 12 7 0 9 -4 16 -10 16 -5 0 -10 7 -10 16 0 8 4 13 9 9 11 -6 26
13 17 22 -3 4 -6 1 -6 -5z"/>
<path d="M3320 1401 c0 -5 5 -13 10 -16 6 -3 10 -2 10 4 0 5 -4 13 -10 16 -5
3 -10 2 -10 -4z"/>
<path d="M3503 1395 c-7 -8 -13 -19 -13 -25 0 -18 15 -10 27 15 12 27 5 32
-14 10z"/>
<path d="M3562 1383 c21 -21 30 -24 41 -15 8 7 16 9 20 6 4 -5 3 15 -3 36 -1
3 -5 -5 -10 -17 -5 -13 -14 -23 -20 -23 -8 0 -8 6 0 20 7 14 7 20 0 20 -5 0
-10 -8 -10 -17 -1 -17 -1 -17 -11 0 -5 9 -15 17 -22 17 -6 0 0 -12 15 -27z"/>
<path d="M3170 1386 c0 -2 7 -6 15 -10 8 -3 15 -1 15 4 0 6 -7 10 -15 10 -8 0
-15 -2 -15 -4z"/>
<path d="M3365 1380 c-3 -5 -1 -10 4 -10 6 0 11 5 11 10 0 6 -2 10 -4 10 -3 0
-8 -4 -11 -10z"/>
<path d="M3096 1373 c-9 -9 -7 -33 3 -33 12 0 22 28 12 34 -5 3 -11 3 -15 -1z"/>
<path d="M3226 1372 c-3 -5 1 -9 9 -9 8 0 12 4 9 9 -3 4 -7 8 -9 8 -2 0 -6 -4
-9 -8z"/>
<path d="M3278 1363 c7 -3 16 -2 19 1 4 3 -2 6 -13 5 -11 0 -14 -3 -6 -6z"/>
<path d="M3160 1349 c0 -5 -4 -8 -8 -5 -5 3 -9 -1 -9 -9 0 -10 5 -11 17 -5 10
5 21 6 26 2 5 -4 2 1 -5 11 -15 20 -21 21 -21 6z"/>
<path d="M3306 1339 c2 -5 11 -6 19 -2 11 4 13 1 9 -11 -4 -11 -2 -15 8 -11
25 10 16 31 -13 31 -15 0 -26 -3 -23 -7z"/>
<path d="M3840 1296 c-8 -11 -9 -20 -1 -33 10 -17 10 -17 11 0 0 9 5 17 10 17
6 0 10 7 10 15 0 19 -14 19 -30 1z"/>
</g>
</svg>
